<?xml version="1.0" encoding="UTF-8" standalone="no"?>
<!-- Created with Inkscape (http://www.inkscape.org/) -->

<svg
   xmlns:dc="http://purl.org/dc/elements/1.1/"
   xmlns:cc="http://creativecommons.org/ns#"
   xmlns:rdf="http://www.w3.org/1999/02/22-rdf-syntax-ns#"
   xmlns:svg="http://www.w3.org/2000/svg"
   xmlns="http://www.w3.org/2000/svg"
   xmlns:sodipodi="http://sodipodi.sourceforge.net/DTD/sodipodi-0.dtd"
   xmlns:inkscape="http://www.inkscape.org/namespaces/inkscape"
   width="28"
   height="32"
   id="svg2"
   version="1.1"
   inkscape:version="0.47 r22583"
   inkscape:export-filename="/home/mstssk/Desktop/button_enter.png"
   inkscape:export-xdpi="90"
   inkscape:export-ydpi="90"
   sodipodi:docname="button_enter.svg">
  <defs
     id="defs4">
    <inkscape:perspective
       sodipodi:type="inkscape:persp3d"
       inkscape:vp_x="0 : 526.18109 : 1"
       inkscape:vp_y="0 : 1000 : 0"
       inkscape:vp_z="744.09448 : 526.18109 : 1"
       inkscape:persp3d-origin="372.04724 : 350.78739 : 1"
       id="perspective10" />
    <inkscape:perspective
       id="perspective2824"
       inkscape:persp3d-origin="0.5 : 0.33333333 : 1"
       inkscape:vp_z="1 : 0.5 : 1"
       inkscape:vp_y="0 : 1000 : 0"
       inkscape:vp_x="0 : 0.5 : 1"
       sodipodi:type="inkscape:persp3d" />
    <filter
       inkscape:collect="always"
       id="filter3868"
       x="-0.27160221"
       width="1.5432044"
       y="-0.21498542"
       height="1.4299708">
      <feGaussianBlur
         inkscape:collect="always"
         stdDeviation="1.9203125"
         id="feGaussianBlur3870" />
    </filter>
  </defs>
  <sodipodi:namedview
     id="base"
     pagecolor="#ffffff"
     bordercolor="#666666"
     borderopacity="1.0"
     inkscape:pageopacity="0.0"
     inkscape:pageshadow="2"
     inkscape:zoom="5.6568543"
     inkscape:cx="41.481699"
     inkscape:cy="-11.388411"
     inkscape:document-units="px"
     inkscape:current-layer="layer1"
     showgrid="false"
     inkscape:window-width="1440"
     inkscape:window-height="828"
     inkscape:window-x="0"
     inkscape:window-y="24"
     inkscape:window-maximized="1" />
  <metadata
     id="metadata7">
    <rdf:RDF>
      <cc:Work
         rdf:about="">
        <dc:format>image/svg+xml</dc:format>
        <dc:type
           rdf:resource="http://purl.org/dc/dcmitype/StillImage" />
        <dc:title></dc:title>
      </cc:Work>
    </rdf:RDF>
  </metadata>
  <g
     inkscape:label="レイヤー 1"
     inkscape:groupmode="layer"
     id="layer1"
     transform="translate(-317.42856,-422.07648)">
    <path
       style="fill:none;stroke:#000000;stroke-width:1px;stroke-linecap:butt;stroke-linejoin:miter;stroke-opacity:1;opacity:0.80000000000000004;filter:url(#filter3868)"
       d="m 334.8125,427.29996 0,11.96875 -5.53125,-0.0625 0,-4.40625 -6.59375,6.8125 6.59375,7.125 0,-4 c 1.72916,0.0211 3.45834,0.0419 5.1875,0.0625 3.51773,-0.0194 5.125,-3.11261 5.125,-4.71875 l 0.0625,-12.78125 -4.84375,0 z"
       id="path2830"
       sodipodi:nodetypes="ccccccccccc" />
    <path
       style="opacity:0.3;fill:#000000;fill-opacity:1;stroke:none"
       d="m 334.8125,427.29996 0,11.96875 -5.53125,-0.0625 0,-4.40625 -6.59375,6.8125 6.59375,7.125 0,-4 c 1.72916,0.0211 3.45834,0.0419 5.1875,0.0625 3.51773,-0.0194 5.125,-3.11261 5.125,-4.71875 l 0.0625,-12.78125 -4.84375,0 z"
       id="path3653"
       sodipodi:nodetypes="ccccccccccc" />
    <path
       sodipodi:nodetypes="ccccccccccc"
       id="path3615"
       d="m 334.8125,427.29996 0,11.96875 -5.53125,-0.0625 0,-4.40625 -6.59375,6.8125 6.59375,7.125 0,-4 c 1.72916,0.0211 3.45834,0.0419 5.1875,0.0625 3.51773,-0.0194 5.125,-3.11261 5.125,-4.71875 l 0.0625,-12.78125 -4.84375,0 z"
       style="fill:none;stroke:#ffffff;stroke-width:2;stroke-linecap:round;stroke-linejoin:round;stroke-miterlimit:4;stroke-opacity:1;stroke-dasharray:none" />
  </g>
</svg>
